<svg height="512" viewBox="0 0 59 59" width="512" xmlns="http://www.w3.org/2000/svg"><g id="Page-1" fill="none" fill-rule="evenodd"><g id="034---Video-Streaming" fill-rule="nonzero"><rect id="Rectangle-path" fill="#3b97d3" height="44" rx="2" width="58" y="15"/><path id="Shape" d="m28.86 15v44h-26.86c-1.10322458-.0032402-1.9967598-.8967754-2-2v-40c.0032402-1.1032246.89677542-1.9967598 2-2z" fill="#3b97d3"/><path id="Shape" d="m42 33c0 7.1797017-5.8202983 13-13 13h-.14c-7.1234455-.0790287-12.8565757-5.8761162-12.8565757-13s5.7331302-12.9209713 12.8565757-13h.14c7.1797017 0 13 5.8202983 13 13z" fill="#ecf0f1"/><path id="Shape" d="m54 53h-50c-.55228475 0-1-.4477153-1-1s.44771525-1 1-1h50c.5522847 0 1 .4477153 1 1s-.4477153 1-1 1z" fill="#2c2f38"/><circle id="Oval" cx="44" cy="52" fill="#35495e" r="3"/><path id="Shape" d="m24 27.0014v11.9972c.0001657.3518891.1852706.6777931.4874156.858166.302145.1803728.6768562.1886647.9866844.021834l11-5.9986c.3239397-.1744036.5259539-.5125957.5259539-.8805s-.2020142-.7060964-.5259539-.8805l-11-5.9986c-.3099851-.1669152-.6849058-.1585249-.9871137.0220904-.3022078.1806154-.4871726.5068422-.4869863.8589096z" fill="#547580"/><g fill="#e64c3c"><path id="Shape" d="m58 16c-.5522847 0-1-.4477153-1-1-.0079361-7.17641195-5.8235881-12.99206392-13-13-.5522847 0-1-.44771525-1-1s.4477153-1 1-1c8.2803876.00936852 14.9906315 6.71961243 15 15 0 .5522847-.4477153 1-1 1z"/><path id="Shape" d="m53 16c-.5522847 0-1-.4477153-1-1-.0050699-4.4161763-3.5838237-7.99493014-8-8-.5522847 0-1-.44771525-1-1s.4477153-1 1-1c5.5203116.00611737 9.9938826 4.47968838 10 10 0 .5522847-.4477153 1-1 1z"/><path id="Shape" d="m48 16c-.5522847 0-1-.4477153-1-1-.0018187-1.6561003-1.3438997-2.9981813-3-3-.5522847 0-1-.4477153-1-1s.4477153-1 1-1c2.760076.0032511 4.9967489 2.239924 5 5 0 .5522847-.4477153 1-1 1z"/></g></g></g></svg>